<svg width="26" height="31" viewBox="0 0 26 31" fill="none" xmlns="http://www.w3.org/2000/svg">
<path d="M5 8.99573C4.72809 8.99573 4.49257 9.09593 4.29395 9.29456C4.09562 9.49303 3.99617 9.72801 3.99609 9.99963V21.9996C3.99609 22.2715 4.09543 22.5071 4.29395 22.7057C4.49257 22.9043 4.72809 23.0035 5 23.0035H11.9961V26.5309H12.0059L12.0029 26.5338L16.127 23.0035H21C21.2719 23.0035 21.5074 22.9043 21.7061 22.7057C21.9046 22.5071 22.0039 22.2715 22.0039 21.9996V9.99963C22.0038 9.72801 21.9044 9.49303 21.7061 9.29456C21.5074 9.09593 21.2719 8.99573 21 8.99573H5ZM18.6973 18.6403C18.0329 19.304 17.2854 19.8327 16.4541 20.2262L16.0918 20.3873C15.1133 20.7932 14.0826 20.9957 13 20.9957C11.9278 20.9957 10.9024 20.7932 9.92383 20.3873C8.94612 19.9817 8.07265 19.3982 7.30273 18.6393L8.70312 17.2233C9.27576 17.7953 9.931 18.2329 10.6699 18.5348C11.3176 18.7993 11.9937 18.9518 12.6973 18.9928L13 19.0035C13.7115 19.0035 14.3951 18.8884 15.0508 18.6569L15.3301 18.5504C16.0688 18.2486 16.7234 17.8055 17.2959 17.2233L18.6973 18.6403ZM17.1055 17.4078L17.1797 17.3317C17.2186 17.2941 17.2587 17.2572 17.2969 17.2184L17.1055 17.4078ZM17.9961 13.0035V14.9957H16.0039V13.0035H17.9961ZM9.99609 13.0035V14.9957H8.00391V13.0035H9.99609ZM13.998 3.7301L13.9961 3.72717V6.99963H14V7.00354H21C21.416 7.00354 21.8059 7.08198 22.1699 7.23792C22.534 7.39395 22.8516 7.60717 23.1221 7.87756C23.3925 8.14802 23.6057 8.46559 23.7617 8.82971C23.9177 9.19369 23.9961 9.58359 23.9961 9.99963V12.9996H24V13.0035H25.9961V16.9957H24V16.9996H23.9961V21.9996C23.9961 22.4158 23.9177 22.8065 23.7617 23.1705C23.6057 23.5345 23.3925 23.8523 23.1221 24.1227C22.8517 24.393 22.5339 24.6063 22.1699 24.7623C21.806 24.9182 21.416 24.9957 21 24.9957H16.875V24.9948L16.8721 24.9967L10.0039 30.8658V24.9996H10V24.9957H5C4.636 24.9957 4.29192 24.9364 3.96777 24.817L3.83008 24.7623C3.46608 24.6063 3.14833 24.393 2.87793 24.1227C2.60754 23.8523 2.39433 23.5345 2.23828 23.1705C2.08225 22.8065 2.00391 22.4158 2.00391 21.9996V16.9996H2V16.9957H0.00390625V13.0035H2V12.9996H2.00391V9.99963C2.00395 9.58359 2.08229 9.19369 2.23828 8.82971C2.39434 8.46559 2.60747 8.14802 2.87793 7.87756C3.08074 7.67478 3.30996 7.50431 3.56543 7.36584L3.83008 7.23792C4.19405 7.08198 4.58397 7.00354 5 7.00354H12V6.99963H12.0039V3.73401H12.0078L12.002 3.73108C11.7005 3.55435 11.4609 3.3096 11.2842 2.99768C11.1076 2.68586 11.0143 2.35298 11.0039 1.99963L11.0137 1.79358C11.0266 1.65846 11.0529 1.52863 11.0918 1.40393L11.1602 1.22034C11.2641 0.981208 11.4043 0.773021 11.5811 0.596313C11.7135 0.463851 11.8666 0.349035 12.04 0.251587L12.2207 0.15979C12.4076 0.0741538 12.6003 0.0230535 12.7988 0.00744629L13 0.00354004C13.2106 0.00354004 13.4095 0.0329342 13.5967 0.0914307L13.7793 0.15979C14.0184 0.263738 14.2266 0.404043 14.4033 0.580688C14.58 0.757381 14.7254 0.970776 14.8398 1.22034C14.9542 1.46973 15.0065 1.72948 14.9961 1.99963L14.9922 2.13147C14.9729 2.43607 14.886 2.72486 14.7314 2.99768C14.5548 3.30945 14.3098 3.55338 13.998 3.7301Z" fill="#121212" stroke="#121212" stroke-width="0.0078125"/>
</svg>
